:SAMPLES-PER-SECOND 30
:FULLY-SPECIFIED
:DEGREES
97
root  -31.9801 39.7123 23.8871 -170.874 -57.6708 168.201
RightUpLeg  -6.85091 7.0246 1.73175
RightLeg  46.9865 -0.546004 -1.02494
RightFoot  -5.37977 -0.097559 1.38678
RightToes  2.32829e-010 0 -3.6325e-017
Spine  3.27792 2.0555 4.85362
Spine1  4.58157 3.45224 -5.46122
HEad  -10.9495 -20.4619 11.64
LeftShoulder1  6.9714 -10.6421 -42.8281
LeftArm  -8.97158 52.8841 -28.8725
LeftForeArm  175.304 -51.1653 -167.861
LeftHand  -0.244104 0.0205437 5.32207
RightShoulder  5.05114 8.53592 35.9717
RightArm  17.6088 -12.2458 38.3362
RightForeArm  173.129 58.7152 163.91
RightHand  -0.0825091 -6.35575 5.07802
LeftUpLeg  -14.3258 7.78967 8.47374
LeftLeg  9.69344 4.22933 0.045523
LeftFoot  -3.01157 0.37711 -4.77606
LeftToes  -1.53708e-010 -3.96652e-011 -3.29181e-011
98
root  -33.8104 39.1908 23.8021 -172.142 -52.6039 168.504
RightUpLeg  -11.0915 7.29938 -0.356988
RightLeg  57.5133 -1.70949 -3.40051
RightFoot  -4.82391 -0.135813 1.7964
RightToes  2.32829e-010 0 -3.6325e-017
Spine  6.08465 1.78306 3.53119
Spine1  3.71206 3.01305 -4.63407
HEad  -13.139 -18.3341 11.4201
LeftShoulder1  6.88787 -10.5285 -42.6461
LeftArm  -9.85897 51.8582 -28.9792
LeftForeArm  175.828 -50.1156 -168.333
LeftHand  -0.244104 0.0205437 5.32207
RightShoulder  5.2074 8.80781 36.3084
RightArm  18.8688 -12.3413 36.9324
RightForeArm  169.14 60.0862 162.697
RightHand  -0.117153 -7.23564 4.49743
LeftUpLeg  -13.7451 10.3656 8.25939
LeftLeg  13.5119 3.35438 0.403526
LeftFoot  -1.13247 0.886527 -9.89572
LeftToes  -1.53708e-010 -3.96652e-011 -3.29181e-011
99
root  -35.5425 38.4752 23.6602 -172.37 -47.6974 167.495
RightUpLeg  -16.2355 7.35873 -2.66268
RightLeg  66.7757 -2.3556 -6.68421
RightFoot  -6.65559 -0.0314106 -0.426433
RightToes  2.32829e-010 0 -3.6325e-017
Spine  9.25609 1.42088 0.339289
Spine1  2.45406 2.02169 -2.21403
HEad  -15.6229 -16.0452 11.0272
LeftShoulder1  6.78792 -10.1416 -43.2535
LeftArm  -8.01983 47.3286 -25.6863
LeftForeArm  174.807 -51.2487 -167.782
LeftHand  -0.244104 0.0205437 5.32207
RightShoulder  5.3701 8.85233 37.4377
RightArm  17.1757 -13.4022 36.7307
RightForeArm  166.56 64.6335 158.781
RightHand  -0.150844 -7.93558 4.61793
LeftUpLeg  -14.2563 16.5571 6.7781
LeftLeg  22.3968 1.09102 0.918961
LeftFoot  -2.12966 1.03932 -12.7347
LeftToes  -1.53708e-010 -3.96652e-011 -3.29181e-011
100
root  -37.1325 37.8031 23.3785 -172.229 -43.3668 165.936
RightUpLeg  -21.3731 6.60172 -4.40891
RightLeg  72.4953 -2.4062 -9.49561
RightFoot  -9.09786 -0.0095 -2.56262
RightToes  2.32829e-010 0 -3.6325e-017
Spine  12.1341 0.983696 -3.73901
Spine1  1.6089 0.689734 0.468042
HEad  -17.8651 -13.8892 10.7397
LeftShoulder1  6.90593 -9.96695 -44.6356
LeftArm  -5.47647 39.8382 -20.3761
LeftForeArm  173.526 -54.7807 -166.062
LeftHand  -0.244104 0.0205437 5.32207
RightShoulder  5.68417 8.9767 39.4293
RightArm  12.0558 -16.1595 38.0288
RightForeArm  161.186 72.0053 148.78
RightHand  -0.0959664 -7.04878 3.47812
LeftUpLeg  -13.894 21.0394 5.69209
LeftLeg  30.8234 0.449727 0.645399
LeftFoot  -7.02344 0.553111 -13.4648
LeftToes  -1.53708e-010 -3.96652e-011 -3.29181e-011
101
root  -38.63 37.464 22.8792 -172.528 -40.0114 165.021
RightUpLeg  -25.3034 4.41308 -4.45397
RightLeg  73.4123 -2.89831 -11.9237
RightFoot  -11.2412 -0.0714646 -3.16324
RightToes  2.32829e-010 0 -3.6325e-017
Spine  13.9127 0.286132 -7.21325
Spine1  1.64349 -0.945712 2.72778
HEad  -18.9867 -11.8781 10.2621
LeftShoulder1  7.22678 -10.2957 -45.6442
LeftArm  -3.93963 31.9025 -16.3871
LeftForeArm  173.642 -58.6351 -164.016
LeftHand  -0.244104 0.0205437 5.32207
RightShoulder  6.05238 9.19518 41.4406
RightArm  5.81951 -21.137 38.2782
RightForeArm  146.511 77.3829 132.626
RightHand  -0.0411168 -7.07682 0.476423
LeftUpLeg  -11.444 23.8296 5.16456
LeftLeg  35.04 0.243601 0.562192
LeftFoot  -12.7223 -0.0941777 -13.958
LeftToes  -1.53708e-010 -3.96652e-011 -3.29181e-011
102
root  -40.129 37.5486 22.1238 -173.337 -37.3194 165.604
RightUpLeg  -27.689 0.919077 -2.36794
RightLeg  69.6709 -4.54496 -14.1369
RightFoot  -13.1379 -0.132108 -2.79754
RightToes  2.32829e-010 0 -3.6325e-017
Spine  14.1931 -0.767923 -9.31682
Spine1  1.73954 -2.88539 5.33773
HEad  -18.2533 -9.43036 8.72703
LeftShoulder1  7.43723 -10.7519 -45.4701
LeftArm  -3.58027 26.757 -15.9174
LeftForeArm  174.598 -59.9618 -163.269
LeftHand  -0.244104 0.0205437 5.32207
RightShoulder  6.0077 9.05805 41.5833
RightArm  3.97849 -27.7984 35.3679
RightForeArm  138.664 77.701 128.859
RightHand  -0.000719552 -8.35661 -1.73592
LeftUpLeg  -7.12849 24.578 5.59131
LeftLeg  34.4107 1.31755 1.32517
LeftFoot  -15.6329 -0.466792 -14.8896
LeftToes  -1.53708e-010 -3.96652e-011 -3.29181e-011
103
root  -41.6399 37.9777 21.0845 -174.072 -34.3492 167.203
RightUpLeg  -28.6435 -2.79412 1.05258
RightLeg  61.9762 -7.37628 -15.203
RightFoot  -14.6562 -0.168768 -2.39198
RightToes  2.32829e-010 0 -3.6325e-017
Spine  13.4873 -2.07105 -10.3616
Spine1  0.869739 -4.85287 8.30084
HEad  -15.9826 -5.98367 6.23506
LeftShoulder1  7.22064 -10.6782 -44.3196
LeftArm  -3.42595 25.2231 -18.5204
LeftForeArm  175.233 -58.0714 -164.45
LeftHand  -0.244104 0.0205437 5.32207
RightShoulder  5.36608 8.3759 39.0529
RightArm  8.88149 -34.367 29.8129
RightForeArm  144.067 74.5481 140.597
RightHand  0.0101855 -8.25647 -2.08779
LeftUpLeg  -1.7438 25.0285 6.72285
LeftLeg  30.4942 2.99096 2.25484
LeftFoot  -15.1331 -0.454446 -16.3694
LeftToes  -1.53708e-010 -3.96652e-011 -3.29181e-011
104
root  -43.1005 38.6257 19.7601 -174.385 -30.6014 168.658
RightUpLeg  -27.9073 -5.92758 4.58644
RightLeg  50.9905 -10.4538 -13.8971
RightFoot  -15.4714 -0.194643 -2.49178
RightToes  2.32829e-010 0 -3.6325e-017
Spine  12.2622 -3.41484 -10.4003
Spine1  -0.487035 -6.29275 9.94602
HEad  -13.2387 -2.08614 4.17934
LeftShoulder1  6.64782 -9.97939 -42.8396
LeftArm  -2.4223 25.2725 -21.9788
LeftForeArm  175.9 -54.9783 -166.178
LeftHand  -0.244104 0.0205437 5.32207
RightShoulder  4.60536 7.64751 35.3402
RightArm  15.9251 -39.7631 24.1948
RightForeArm  149.525 70.4044 150.032
RightHand  -0.0263214 -7.87754 -0.795526
LeftUpLeg  4.43064 27.0199 8.36912
LeftLeg  25.0502 3.85351 2.32275
LeftFoot  -11.9018 -0.0101678 -19.2446
LeftToes  -1.53708e-010 -3.96652e-011 -3.29181e-011
105
root  -44.4612 39.3047 18.2314 -174.455 -26.4583 169.399
RightUpLeg  -25.4846 -8.7824 7.49467
RightLeg  38.1086 -11.941 -10.1876
RightFoot  -15.7658 -0.20971 -2.67289
RightToes  2.32829e-010 0 -3.6325e-017
Spine  10.4081 -4.43042 -9.15743
Spine1  -0.85321 -6.82472 9.13166
HEad  -10.9569 0.820559 3.34773
LeftShoulder1  6.18427 -9.31841 -41.8464
LeftArm  -0.676984 24.5943 -24.6711
LeftForeArm  177.5 -52.9922 -167.239
LeftHand  -0.244104 0.0205437 5.32207
RightShoulder  4.27287 7.59576 32.5678
RightArm  19.2317 -45.0855 20.8005
RightForeArm  153.933 67.6012 154.43
RightHand  -0.0737327 -8.42955 0.984182
LeftUpLeg  10.6858 29.9677 10.2552
LeftLeg  19.9592 4.1436 1.95205
LeftFoot  -5.64652 1.19606 -22.8904
LeftToes  -1.53708e-010 -3.96652e-011 -3.29181e-011
106
root  -45.7294 39.7728 16.6342 -174.406 -22.65 169.497
RightUpLeg  -22.4286 -12.0149 9.57057
RightLeg  26.3334 -10.6853 -5.97876
RightFoot  -15.9791 -0.177386 -1.71952
RightToes  2.32829e-010 0 -3.6325e-017
Spine  8.00692 -4.78858 -7.24121
Spine1  0.24332 -6.56905 7.06224
HEad  -9.67124 2.02415 2.8987
LeftShoulder1  6.16293 -9.26343 -41.876
LeftArm  0.893482 22.6047 -26.7104
LeftForeArm  178.974 -52.905 -167.38
LeftHand  -0.244104 0.0205437 5.32207
RightShoulder  4.3765 8.2351 31.334
RightArm  17.5373 -50.7264 19.9369
RightForeArm  157.144 65.9345 156.637
RightHand  -0.11404 -9.26539 1.82938
LeftUpLeg  14.4543 30.5429 10.8376
LeftLeg  18.2883 5.41788 2.1942
LeftFoot  2.88247 2.92005 -23.5174
LeftToes  -1.53708e-010 -3.96652e-011 -3.29181e-011
